<?xml version="1.0" ?><svg id="katman_1" style="enable-background:new 0 0 512 512;" version="1.1" viewBox="0 0 512 512" xml:space="preserve" xmlns="http://www.w3.org/2000/svg" xmlns:xlink="http://www.w3.org/1999/xlink"><style type="text/css">
	.st0{fill:#E67D21;}
	.st1{fill:#D35415;}
	.st2{fill:#FFFFFF;}
</style><g><g><circle class="st0" cx="256" cy="256" r="250"/></g><path class="st1" d="M493.1,335.5c-0.3-0.3-0.6-0.6-1.1-1.1c-13.8-13.8-27.6-27.6-41.4-41.4c-43.3-43.3-86.5-86.8-130-129.9   c-20.6-20.5-45.6-28.5-74.3-23.7c-19.6,3.2-35.8,12.7-48.8,27.6c-9,10.3-15.1,22.1-18.2,35.4c-0.5,2.2-0.5,2.3-2.7,2.3   c-4.6,0-9.1,0.6-13.6,1.6c-32.7,7-56.2,36.2-56.2,70.2c-0.1,4.8,0.5,10,1.7,15.2c3.2,13.8,10,25.5,19.9,35.4   c57.8,57.8,115.6,115.6,173.4,173.4c0.3,0.3,0.6,0.5,0.8,0.9c0.1,0.1,0.1,0.2,0.2,0.2C392.2,484.6,464.7,420.2,493.1,335.5z"/><g><path class="st2" d="M343.9,220.3c-0.6-45.7-38-82.8-83.9-82.8c-20.4,0-40.1,7.4-55.4,20.9c-13.6,12-23,28.1-26.7,45.8    c-0.3,0-0.5,0-0.8,0c-39.2,0-71.1,31.9-71.1,71.1s31.9,71.1,71.1,71.1h49.7c3.5,0,6.4-2.9,6.4-6.4s-2.9-6.4-6.4-6.4h-49.7    c-32.1,0-58.3-26.2-58.3-58.3s26.2-58.3,58.3-58.3c1.7,0,3.5,0.1,5.5,0.3c3.4,0.3,6.5-2.1,6.9-5.5c2.3-16.9,10.6-32.4,23.5-43.7    c13-11.4,29.6-17.7,46.9-17.7c39.2,0,71.1,31.9,71.1,71.1c0,1.4-0.1,2.9-0.2,4.4l0,0.7c-0.1,1.9,0.6,3.7,1.9,5    c1.4,1.3,3.2,2,5.1,1.8c1.7-0.2,3.4-0.3,5.1-0.3c27.7,0,50.3,22.5,50.3,50.3c0,27.7-22.5,50.3-50.3,50.3h-52.2    c-3.5,0-6.4,2.9-6.4,6.4c0,3.5,2.9,6.4,6.4,6.4h52.2c34.8,0,63.1-28.3,63.1-63.1C406,248.9,378.2,220.8,343.9,220.3z"/><path class="st2" d="M284.8,304.7c1.8,0,3.5-0.7,4.8-2.1c2.4-2.6,2.1-6.7-0.5-9l-23.3-20.8c-4-3.6-10.1-3.6-14.1,0l-23.3,20.8    c-2.6,2.4-2.9,6.4-0.5,9c2.4,2.6,6.4,2.9,9,0.5l15.4-13.7V368c0,3.5,2.9,6.4,6.4,6.4c3.5,0,6.4-2.9,6.4-6.4v-78.7l15.4,13.7    C281.7,304.2,283.3,304.7,284.8,304.7z"/></g></g></svg>